<?xml version="1.0" standalone="no"?>
<!DOCTYPE svg PUBLIC "-//W3C//DTD SVG 20010904//EN"
 "http://www.w3.org/TR/2001/REC-SVG-20010904/DTD/svg10.dtd">
<svg version="1.0" xmlns="http://www.w3.org/2000/svg"
 width="500.000000pt" height="500.000000pt" viewBox="0 0 500.000000 500.000000"
 preserveAspectRatio="xMidYMid meet">
<metadata>
Created by potrace 1.14, written by Peter Selinger 2001-2017
</metadata>
<g transform="translate(0.000000,500.000000) scale(0.100000,-0.100000)"
fill="#000000" stroke="none">
<path d="M2267 4089 c-198 -29 -335 -74 -522 -171 -431 -224 -744 -656 -831
-1148 -21 -114 -25 -362 -9 -480 64 -471 322 -883 712 -1137 339 -221 745
-307 1140 -243 375 61 733 265 976 555 364 435 472 1049 278 1582 -212 583
-744 994 -1363 1053 -141 14 -232 11 -381 -11z m520 -148 c604 -127 1060 -595
1162 -1195 11 -61 19 -119 20 -128 2 -246 -1 -290 -29 -422 -62 -296 -189
-528 -409 -746 -213 -212 -464 -343 -764 -401 -155 -30 -378 -30 -532 -1 -527
102 -946 462 -1123 963 -59 168 -76 275 -77 474 0 157 8 276 21 296 2 4 6 24
10 45 19 123 124 362 216 496 227 329 553 543 949 622 153 31 402 30 556 -3z"/>
<path d="M2421 3475 c-4 -5 -7 -159 -7 -342 1 -327 1 -332 -19 -328 -84 19
-113 22 -187 20 -252 -9 -436 -200 -436 -455 0 -258 173 -433 435 -439 133 -3
254 42 339 128 l31 31 1 120 0 120 -86 0 -86 0 34 -28 33 -29 3 -107 c3 -106
2 -107 -27 -140 -51 -59 -156 -86 -250 -65 -195 44 -337 267 -324 509 8 159
74 264 195 311 92 36 190 30 284 -18 61 -31 62 -33 61 -149 l-1 -106 225 4
226 3 65 31 c190 90 290 323 244 568 -37 191 -175 339 -337 362 -75 11 -408
10 -416 -1z m368 -26 c133 -43 223 -142 268 -293 21 -71 25 -200 7 -282 -15
-75 -60 -173 -98 -216 -38 -43 -113 -96 -146 -103 -16 -4 -30 -10 -30 -14 0
-4 -60 -8 -133 -10 l-134 -2 0 463 c0 255 3 465 8 468 14 10 221 1 258 -11z"/>
<path d="M2383 1654 c-8 -4 -10 -16 -6 -35 4 -23 2 -29 -11 -29 -16 0 -16 -1
-1 -16 20 -20 16 -63 -7 -78 -25 -15 -51 14 -51 56 1 31 0 32 -10 10 -23 -51
28 -105 69 -72 10 9 14 9 14 1 0 -6 3 -11 8 -11 4 0 8 41 8 90 0 50 0 90 0 89
-1 0 -6 -3 -13 -5z"/>
<path d="M2040 1633 c8 -3 21 -12 28 -21 11 -14 12 -14 12 0 0 16 -21 29 -43
27 -7 0 -5 -3 3 -6z"/>
<path d="M2594 1560 c0 -50 4 -80 11 -80 14 0 13 152 -1 157 -6 2 -10 -28 -10
-77z"/>
<path d="M2666 1622 c41 -32 51 -85 22 -119 -8 -11 -7 -12 5 -7 16 6 29 33 32
67 2 25 -29 63 -57 70 l-23 6 21 -17z"/>
<path d="M2240 1620 c0 -5 7 -10 16 -10 8 0 12 5 9 10 -3 6 -10 10 -16 10 -5
0 -9 -4 -9 -10z"/>
<path d="M1962 1600 c-21 -34 -15 -76 14 -99 15 -12 34 -21 43 -20 11 0 9 3
-6 9 -31 13 -46 47 -40 91 3 22 4 39 3 39 0 0 -7 -9 -14 -20z"/>
<path d="M2489 1576 c14 -14 26 -24 29 -22 7 8 -8 25 -31 37 -21 11 -21 10 2
-15z"/>
<path d="M3020 1596 c0 -2 7 -9 15 -16 9 -7 15 -8 15 -2 0 5 -7 12 -15 16 -8
3 -15 4 -15 2z"/>
<path d="M2115 1546 c3 -49 10 -66 26 -66 6 0 7 5 4 11 -4 5 -8 29 -9 52 -2
22 -7 42 -13 44 -7 3 -10 -12 -8 -41z"/>
<path d="M2193 1538 c1 -28 7 -53 12 -55 6 -2 9 18 7 52 -5 70 -22 73 -19 3z"/>
<path d="M2244 1535 c0 -33 4 -55 11 -55 6 0 10 22 10 55 0 30 -4 55 -10 55
-5 0 -10 -25 -11 -55z"/>
<path d="M2756 1568 c-8 -13 -14 -30 -13 -39 7 -46 62 -65 88 -31 12 15 12 16
-1 6 -18 -14 -50 -10 -61 8 -13 19 -11 52 3 66 7 7 9 12 5 12 -3 0 -13 -10
-21 -22z"/>
<path d="M2820 1570 c11 -20 30 -28 30 -12 0 11 -22 32 -32 32 -5 0 -4 -9 2
-20z"/>
<path d="M2861 1584 c2 -5 12 -30 23 -57 20 -50 30 -57 40 -30 4 10 4 14 -1
10 -4 -4 -15 11 -24 35 -9 23 -22 44 -29 46 -7 3 -11 1 -9 -4z"/>
<path d="M2977 1576 c-9 -23 6 -42 39 -50 20 -5 25 -12 21 -26 -3 -11 -1 -18
4 -14 21 12 8 46 -21 57 -17 6 -30 20 -32 32 -3 19 -4 19 -11 1z"/>
<path d="M2421 1558 c-10 -27 -4 -48 17 -65 19 -15 58 -17 67 -3 3 6 -1 7 -10
4 -8 -4 -27 1 -41 11 -21 13 -24 21 -19 46 8 34 -2 39 -14 7z"/>
<path d="M2072 1521 c1 -16 6 -27 10 -25 12 7 10 54 -2 54 -6 0 -9 -13 -8 -29z"/>
<path d="M2970 1502 c0 -12 19 -26 26 -19 2 2 -2 10 -11 17 -9 8 -15 8 -15 2z"/>
</g>
</svg>
